<svg xmlns="http://www.w3.org/2000/svg" viewBox="0 0 800 600" role="img" aria-label="원룸 주방 일러스트: 창가의 작은 조리대 위 1구 인덕션과 김이 나는 냄비">
  <defs>
    <linearGradient id="sky" x1="0" y1="0" x2="0" y2="1">
      <stop offset="0" stop-color="#F6E7CE"/><stop offset="1" stop-color="#EED9B8"/>
    </linearGradient>
  </defs>
  <rect width="800" height="600" fill="#F3EADD"/>
  <!-- 벽/바닥 -->
  <rect y="440" width="800" height="160" fill="#E4D5C0"/>
  <!-- 창문 -->
  <rect x="470" y="70" width="240" height="220" rx="10" fill="url(#sky)" stroke="#2C2420" stroke-width="6"/>
  <line x1="590" y1="76" x2="590" y2="284" stroke="#2C2420" stroke-width="5"/>
  <line x1="476" y1="180" x2="704" y2="180" stroke="#2C2420" stroke-width="5"/>
  <circle cx="540" cy="130" r="26" fill="#D9A13F" opacity=".85"/>
  <!-- 선반 -->
  <rect x="80" y="120" width="260" height="10" rx="4" fill="#9A4326"/>
  <rect x="108" y="66" width="34" height="54" rx="4" fill="#C05A3A"/>
  <rect x="152" y="78" width="30" height="42" rx="4" fill="#7C8B6C"/>
  <rect x="192" y="60" width="26" height="60" rx="4" fill="#D9A13F"/>
  <path d="M250 120v-30a22 22 0 0 1 44 0v30" fill="none" stroke="#2C2420" stroke-width="6"/>
  <!-- 조리대 -->
  <rect x="60" y="330" width="680" height="26" rx="6" fill="#2C2420"/>
  <rect x="90" y="356" width="620" height="180" fill="#C8B394"/>
  <rect x="90" y="356" width="620" height="14" fill="#B29D7E"/>
  <rect x="120" y="392" width="270" height="120" rx="8" fill="#A98F6C"/>
  <rect x="410" y="392" width="270" height="120" rx="8" fill="#A98F6C"/>
  <circle cx="255" cy="452" r="9" fill="#2C2420"/>
  <circle cx="545" cy="452" r="9" fill="#2C2420"/>
  <!-- 1구 인덕션 -->
  <rect x="150" y="296" width="200" height="34" rx="8" fill="#3A312B"/>
  <circle cx="250" cy="313" r="11" fill="none" stroke="#C05A3A" stroke-width="4"/>
  <!-- 냄비 -->
  <path d="M195 232h110v52a14 14 0 0 1-14 14h-82a14 14 0 0 1-14-14z" fill="#C05A3A"/>
  <rect x="185" y="222" width="130" height="14" rx="7" fill="#9A4326"/>
  <rect x="305" y="242" width="52" height="10" rx="5" fill="#9A4326"/>
  <!-- 스팀 -->
  <path d="M228 200c-8 -12 8 -18 0 -32M252 204c-8 -12 8 -18 0 -32M276 200c-8 -12 8 -18 0 -32" fill="none" stroke="#7C8B6C" stroke-width="6" stroke-linecap="round" opacity=".8"/>
  <!-- 도마와 재료 -->
  <rect x="420" y="300" width="150" height="24" rx="10" fill="#D9A13F"/>
  <circle cx="452" cy="296" r="12" fill="#C05A3A"/>
  <circle cx="482" cy="294" r="10" fill="#7C8B6C"/>
  <ellipse cx="522" cy="296" rx="18" ry="8" fill="#7C8B6C"/>
  <!-- 병 -->
  <rect x="620" y="268" width="26" height="56" rx="6" fill="#7C8B6C"/>
  <rect x="626" y="252" width="14" height="18" rx="3" fill="#2C2420"/>
  <!-- 화분 -->
  <path d="M660 330l10-40h30l10 40z" fill="#C05A3A" transform="translate(-580 -105) scale(.9)"/>
</svg>
