<svg xmlns="http://www.w3.org/2000/svg" viewBox="0 0 400 300" role="img" aria-label="10분 버터간장계란밥 일러스트">
  <rect width="400" height="300" fill="#F3E7D3"/>
  <circle cx="352" cy="46" r="60" fill="#D9A13F" opacity=".18"/>
  <circle cx="40" cy="262" r="70" fill="#C05A3A" opacity=".12"/>
  <g transform="translate(0,14)"><ellipse cx="200" cy="170" rx="95" ry="26" fill="#C05A3A"/><path d="M105 170h190c0 42-38 66-95 66s-95-24-95-66z" fill="#C05A3A"/><ellipse cx="200" cy="168" rx="80" ry="18" fill="#D9A13F"/><circle cx="185" cy="163" r="10" fill="#FFFDF8"/><circle cx="218" cy="167" r="7" fill="#7C8B6C"/><path d="M185 128c-8 -12 8 -18 0 -32M215 128c-8 -12 8 -18 0 -32" fill="none" stroke="#7C8B6C" stroke-width="6" stroke-linecap="round" opacity=".75"/></g>
  <rect x="20" y="252" width="86" height="26" rx="13" fill="#C05A3A"/>
  <text x="63" y="270" font-family="sans-serif" font-size="13" font-weight="700" fill="#FFFDF8" text-anchor="middle">한식</text>
</svg>
