<svg xmlns="http://www.w3.org/2000/svg" viewBox="0 0 400 300" role="img" aria-label="오버나이트 오츠 3가지 맛 일러스트">
  <rect width="400" height="300" fill="#F1E8D9"/>
  <circle cx="352" cy="46" r="60" fill="#D9A13F" opacity=".18"/>
  <circle cx="40" cy="262" r="70" fill="#7C8B6C" opacity=".12"/>
  <g transform="translate(0,14)"><path d="M150 120h100v88a22 22 0 0 1-22 22h-56a22 22 0 0 1-22-22z" fill="#FFFDF8" stroke="#7C8B6C" stroke-width="5"/><path d="M154 168h92v40a18 18 0 0 1-18 18h-56a18 18 0 0 1-18-18z" fill="#D9A13F"/><circle cx="176" cy="150" r="8" fill="#C05A3A"/><circle cx="206" cy="144" r="6" fill="#7C8B6C"/><circle cx="224" cy="154" r="7" fill="#C05A3A"/></g>
  <rect x="20" y="252" width="86" height="26" rx="13" fill="#7C8B6C"/>
  <text x="63" y="270" font-family="sans-serif" font-size="13" font-weight="700" fill="#FFFDF8" text-anchor="middle">밀프렙</text>
</svg>
