<svg xmlns="http://www.w3.org/2000/svg" viewBox="0 0 400 300" role="img" aria-label="새벽의 국물떡볶이 일러스트">
  <rect width="400" height="300" fill="#F0E2D2"/>
  <circle cx="352" cy="46" r="60" fill="#D9A13F" opacity=".18"/>
  <circle cx="40" cy="262" r="70" fill="#B44B31" opacity=".12"/>
  <g transform="translate(0,14)"><path d="M120 150h160v46a20 20 0 0 1-20 20H140a20 20 0 0 1-20-20z" fill="#B44B31"/><rect x="106" y="138" width="188" height="16" rx="8" fill="#D9A13F"/><rect x="80" y="152" width="30" height="10" rx="5" fill="#D9A13F"/><rect x="290" y="152" width="30" height="10" rx="5" fill="#D9A13F"/><ellipse cx="200" cy="150" rx="70" ry="10" fill="#7C8B6C" opacity=".7"/><path d="M180 118c-8 -12 8 -18 0 -32M220 118c-8 -12 8 -18 0 -32" fill="none" stroke="#7C8B6C" stroke-width="6" stroke-linecap="round" opacity=".75"/></g>
  <rect x="20" y="252" width="86" height="26" rx="13" fill="#B44B31"/>
  <text x="63" y="270" font-family="sans-serif" font-size="13" font-weight="700" fill="#FFFDF8" text-anchor="middle">야식</text>
</svg>
