<svg xmlns="http://www.w3.org/2000/svg" viewBox="0 0 400 300" role="img" aria-label="전자레인지 폭탄계란찜 일러스트">
  <rect width="400" height="300" fill="#F2E9DC"/>
  <circle cx="352" cy="46" r="60" fill="#7C8B6C" opacity=".18"/>
  <circle cx="40" cy="262" r="70" fill="#C0703A" opacity=".12"/>
  <g transform="translate(0,14)"><ellipse cx="200" cy="170" rx="95" ry="26" fill="#C0703A"/><path d="M105 170h190c0 42-38 66-95 66s-95-24-95-66z" fill="#C0703A"/><ellipse cx="200" cy="168" rx="80" ry="18" fill="#7C8B6C"/><circle cx="185" cy="163" r="10" fill="#FFFDF8"/><circle cx="218" cy="167" r="7" fill="#D9A13F"/><path d="M185 128c-8 -12 8 -18 0 -32M215 128c-8 -12 8 -18 0 -32" fill="none" stroke="#D9A13F" stroke-width="6" stroke-linecap="round" opacity=".75"/></g>
  <rect x="20" y="252" width="86" height="26" rx="13" fill="#C0703A"/>
  <text x="63" y="270" font-family="sans-serif" font-size="13" font-weight="700" fill="#FFFDF8" text-anchor="middle">야식</text>
</svg>
